<svg width="1920" height="1080" viewBox="0 0 1920 1080" fill="none" xmlns="http://www.w3.org/2000/svg">
<g clip-path="url(#clip0_19_10)">
<rect width="1920" height="1080" fill="#0E0E10"/>
<g filter="url(#filter0_f_19_10)">
<ellipse cx="960.5" cy="1080.07" rx="451.122" ry="259.411" transform="rotate(-0.0836861 960.5 1080.07)" fill="#0025CE" fill-opacity="0.7"/>
</g>
<g filter="url(#filter1_f_19_10)">
<ellipse cx="960" cy="819.5" rx="408" ry="155.5" fill="white" fill-opacity="0.1"/>
</g>
<g clip-path="url(#clip1_19_10)">
<path d="M237.76 -1.14441e-05C276.5 73.78 130.94 160.1 141.75 270C147.06 323.92 204.76 327.64 270 327.64C349.04 327.64 422.22 330.11 430.31 270C444.26 166.29 283.07 76.33 314.08 -1.14441e-05C337.91 -58.67 427.04 -1.14441e-05 540 -1.14441e-05C675 -1.14441e-05 675 -1.14441e-05 810 -1.14441e-05C945 -1.14441e-05 1049.54 -63.47 1080 -1.14441e-05C1114.34 71.53 956.8 129.39 939.6 270C923.77 399.39 963.36 411.66 1013.94 540C1033.56 589.79 1037.27 626.25 1080 626.25C1154.22 626.25 1231.12 611.28 1247.84 540C1272.9 433.16 1138.74 392.44 1163.57 270C1189.82 140.58 1248.31 142.73 1350 36.27C1377.26 7.72999 1382.64 5.21999 1421.47 -1.14441e-05C1517.64 -12.92 1520.74 -1.14441e-05 1620 -1.14441e-05C1755 -1.14441e-05 1755 -1.14441e-05 1890 -1.14441e-05C2025 -1.14441e-05 2058.75 -33.75 2160 -1.14441e-05C2193.75 11.25 2161.58 45.04 2160 90C2156.84 180.04 2150.53 180.21 2150.53 270C2150.53 303.96 2158.81 303.5 2160 337.5C2163.54 438.5 2160 438.75 2160 540C2160 675 2160 675 2160 810C2160 945 2227.5 1012.5 2160 1080C2092.5 1147.5 2025 1080 1890 1080C1755 1080 1755 1080 1620 1080C1485 1080 1402.12 1146.71 1350 1080C1296.65 1011.71 1409.06 939.54 1409.06 810C1409.06 759.54 1374.52 720 1350 720C1328.11 720 1316.25 763.01 1316.25 810C1316.25 943.01 1409.29 1012.24 1350 1080C1291.17 1147.24 1215 1080 1080 1080C945 1080 945 1080 810 1080C675 1080 675 1080 540 1080C405 1080 405 1080 270 1080C164.12 1080 160.46 1093.23 58.2401 1080C25.4601 1075.76 6.53007 1075.32 7.05719e-05 1045.06C-22.5899 940.32 7.05719e-05 927.53 7.05719e-05 810C7.05719e-05 675 7.05719e-05 675 7.05719e-05 540C7.05719e-05 405 7.05719e-05 405 7.05719e-05 270C7.05719e-05 135 -63.2099 71.79 7.05719e-05 -1.14441e-05C55.6701 -63.21 205.62 -61.22 237.76 -1.14441e-05Z" stroke="#6A6A6A" stroke-opacity="0.08" stroke-width="2"/>
<path d="M1890 476.25C1851.02 476.25 1843.31 499.5 1827.97 540C1780.12 666.38 1747.42 682 1763.62 810C1778.43 927 1828.26 1030 1890 1030C1950.85 1030 1961.89 925.18 2008.8 810C2061.68 680.18 2123.64 635.72 2089.57 540C2064.24 468.84 1981.82 476.25 1890 476.25Z" stroke="#6A6A6A" stroke-opacity="0.08" stroke-width="2"/>
<path d="M540 778.24C504.84 778.24 456.92 796.21 456.92 810C456.92 823.34 502.68 832.5 540 832.5C551.72 832.5 555 821.8 555 810C555 794.67 553.88 778.24 540 778.24Z" stroke="#6A6A6A" stroke-opacity="0.08" stroke-width="2"/>
<path d="M137.01 -1.52588e-05C137.01 80.89 36.64 241.58 2.86102e-05 241.58C-31.87 241.58 -43.71 77.08 2.86102e-05 -1.52588e-05C24.79 -43.71 137.01 -39.9 137.01 -1.52588e-05Z" stroke="#6A6A6A" stroke-opacity="0.08" stroke-width="2"/>
<path d="M540 154.29C482.56 154.29 451.84 51.56 451.84 -6.67572e-06C451.84 -25.58 495.92 -6.67572e-06 540 -6.67572e-06C630 -6.67572e-06 720 -33.29 720 -6.67572e-06C720 43.85 616.64 154.29 540 154.29Z" stroke="#6A6A6A" stroke-opacity="0.08" stroke-width="2"/>
<path d="M1243.93 270C1243.93 198.43 1282.36 185.57 1350 137.01C1470.39 50.57 1485 68.5 1620 -2.09808e-05C1755 -2.09808e-05 1755 -2.09808e-05 1890 -2.09808e-05C1966.09 -2.09808e-05 2016.58 -48.64 2042.18 -2.09808e-05C2087.63 86.36 2077.65 155.54 2032.11 270C2001.56 346.79 1956.75 321.48 1890 382.5C1809.07 456.48 1794.49 448.6 1736.76 540C1659.49 662.35 1694.08 810 1620 810C1535.24 810 1523.97 671.12 1419.07 540C1388.97 502.37 1376.01 512.59 1350 472.5C1288.44 377.59 1243.93 366.18 1243.93 270Z" stroke="#6A6A6A" stroke-opacity="0.08" stroke-width="2"/>
<path d="M6.10352e-05 303.75C74.1401 266.26 132.16 363.45 270 403.48C402.16 441.87 416.47 489.81 540 460.59C686.47 425.94 704.34 254.87 810 275.74C905.4 294.58 865.75 414.32 942.13 540C1000.75 636.45 1003 638.01 1080 720C1129.79 773.01 1169.19 747.02 1195.71 810C1244.98 927.02 1268.75 993.27 1231.58 1080C1210.89 1128.27 1155.79 1080 1080 1080C988.09 1080 980.37 1101.78 896.17 1080C845.37 1066.86 855.72 1010.17 810 1010.17C753.08 1010.17 755.39 1063.32 690.88 1080C620.39 1098.23 615.44 1080 540 1080C405 1080 405 1080 270 1080C230.3 1080 226.13 1095.05 190.59 1080C91.1301 1037.88 56.0501 1045.05 6.10352e-05 965.65C-39.2499 910.05 6.10352e-05 887.83 6.10352e-05 810C6.10352e-05 675 6.10352e-05 675 6.10352e-05 540C6.10352e-05 421.88 -60.8599 334.52 6.10352e-05 303.75Z" stroke="#6A6A6A" stroke-opacity="0.08" stroke-width="2"/>
<path d="M270 739.18C230.22 766.41 203.54 769.42 203.54 810C203.54 874.51 208.95 919.75 270 949.35C377.18 1001.32 430.11 1013.56 540 973.13C619.49 943.89 648.75 895.56 648.75 810C648.75 698.85 624.87 595.58 540 579.71C435.5 560.17 398.45 651.26 270 739.18Z" stroke="#6A6A6A" stroke-opacity="0.08" stroke-width="2"/>
<path d="M1487.76 1080C1487.76 986.24 1550.92 810 1620 810C1690.67 810 1767.27 988.71 1767.27 1080C1767.27 1123.71 1693.64 1080 1620 1080C1553.88 1080 1487.76 1121.24 1487.76 1080Z" stroke="#6A6A6A" stroke-opacity="0.08" stroke-width="2"/>
<path d="M36.27 -2.86102e-06C36.27 21.41 9.70003 63.95 3.09944e-05 63.95C-8.43997 63.95 -11.57 20.4 3.09944e-05 -2.86102e-06C6.56003 -11.57 36.27 -10.56 36.27 -2.86102e-06Z" stroke="#6A6A6A" stroke-opacity="0.08" stroke-width="2"/>
<path d="M1324.29 270C1324.29 252.65 1331.19 245.18 1350 237.76C1479.04 186.88 1494.4 214.64 1620 153.41C1738.27 95.76 1724.88 64.12 1837.74 -1.85966e-05C1859.88 -12.58 1863.87 -1.85966e-05 1890 -1.85966e-05C1904.72 -1.85966e-05 1918.29 -13.27 1919.45 -1.85966e-05C1930.13 121.73 1926.92 140.15 1913.68 270C1912.2 284.52 1900.64 278.04 1890 288.75C1766.57 413.04 1759.6 408.91 1645.54 540C1624.6 564.06 1636.2 599.06 1620 599.06C1601.46 599.06 1601.55 566.45 1576.05 540C1466.55 426.46 1457.1 433.95 1350 319.09C1331.22 298.95 1324.29 293.32 1324.29 270Z" stroke="#6A6A6A" stroke-opacity="0.08" stroke-width="2"/>
<path d="M4.19617e-05 514.69C123.52 486.93 138.81 471.13 270 479.33C341.31 483.79 405 504.32 405 540C405 578.92 330.06 575.41 270 628.52C177.41 710.41 189.43 724.34 99.69 810C54.43 853.2 31.01 886.24 4.19617e-05 886.24C-18.84 886.24 4.19617e-05 848.12 4.19617e-05 810C4.19617e-05 675 4.19617e-05 675 4.19617e-05 540C4.19617e-05 527.35 -11.48 517.27 4.19617e-05 514.69Z" stroke="#6A6A6A" stroke-opacity="0.08" stroke-width="2"/>
<path d="M671.71 540C685.1 462.52 752.76 419.36 810 419.36C852.07 419.36 833.48 483.73 870.32 540C961.37 679.05 1082.48 712.13 1065.79 810C1052.32 889.03 925.48 893.79 810 893.79C763.84 893.79 761.74 859.22 742.5 810C692.59 682.32 651.35 657.84 671.71 540Z" stroke="#6A6A6A" stroke-opacity="0.08" stroke-width="2"/>
<path d="M1039.79 1080C1039.79 978.85 1061.62 843.75 1080 843.75C1098.3 843.75 1113.16 976.29 1113.16 1080C1113.16 1094.42 1096.58 1080 1080 1080C1059.89 1080 1039.79 1096.97 1039.79 1080Z" stroke="#6A6A6A" stroke-opacity="0.08" stroke-width="2"/>
</g>
</g>
<defs>
<filter id="filter0_f_19_10" x="109.379" y="420.658" width="1702.24" height="1318.82" filterUnits="userSpaceOnUse" color-interpolation-filters="sRGB">
<feFlood flood-opacity="0" result="BackgroundImageFix"/>
<feBlend mode="normal" in="SourceGraphic" in2="BackgroundImageFix" result="shape"/>
<feGaussianBlur stdDeviation="200" result="effect1_foregroundBlur_19_10"/>
</filter>
<filter id="filter1_f_19_10" x="252" y="364" width="1416" height="911" filterUnits="userSpaceOnUse" color-interpolation-filters="sRGB">
<feFlood flood-opacity="0" result="BackgroundImageFix"/>
<feBlend mode="normal" in="SourceGraphic" in2="BackgroundImageFix" result="shape"/>
<feGaussianBlur stdDeviation="150" result="effect1_foregroundBlur_19_10"/>
</filter>
<clipPath id="clip0_19_10">
<rect width="1920" height="1080" fill="white"/>
</clipPath>
<clipPath id="clip1_19_10">
<rect width="1920" height="1080" fill="white"/>
</clipPath>
</defs>
</svg>
