<svg xmlns="http://www.w3.org/2000/svg" version="1.1" xmlns:xlink="http://www.w3.org/1999/xlink" xmlns:svgjs="http://svgjs.com/svgjs" width="1920" height="1080" preserveAspectRatio="none" viewBox="0 0 1920 1080"><g mask="url(&quot;#SvgjsMask1016&quot;)" fill="none"><rect width="1920" height="1080" x="0" y="0" fill="rgba(14, 14, 16, 1)"></rect><path d="M982.01 1081.58C1191.34 899.97 1045.48 83.21 1413.85 60.63 1782.22 38.05 2047.9 369.04 2277.53 373.83" stroke="rgba(27, 27, 27, 0.79)" stroke-width="2"></path><path d="M905.18 1251.06C1067.32 1246.33 1151.01 1036.33 1505.46 1004.78 1859.91 973.23 1910.42 520.55 2105.74 486.38" stroke="rgba(27, 27, 27, 0.79)" stroke-width="2"></path><path d="M217.75 1230.58C446.23 1147.65 478.81 483.67 816.77 464.79 1154.74 445.91 1116.29 599.79 1415.8 599.79 1715.31 599.79 1861.31 465.62 2014.82 464.79" stroke="rgba(27, 27, 27, 0.79)" stroke-width="2"></path><path d="M492.38 1188.3C765.32 1150.62 920.35 516.15 1364.62 514.59 1808.88 513.03 2003.35 843.71 2236.85 849.39" stroke="rgba(27, 27, 27, 0.79)" stroke-width="2"></path><path d="M511.35 1239.16C707.31 1169.98 740.06 602.59 1028.76 588.57 1317.46 574.55 1287.47 723.57 1546.18 723.57 1804.88 723.57 1929.91 589.68 2063.59 588.57" stroke="rgba(27, 27, 27, 0.79)" stroke-width="2"></path></g><defs><mask id="SvgjsMask1016"><rect width="1920" height="1080" fill="#ffffff"></rect></mask></defs></svg>